# xmcd
#
# Track frame offsets: 
#        150
#        5768
#        22890
#        35722
#        52104
#        67159
#        73187
#        89114
#        99841
#        109853
#        124681
#        139139
#        140693
#        153173
#        168898
#        170782
#        172357
#        189323
#        205474
#        218214
#        223847
#        243587
#        256579
#
# Disc length: 3449 seconds
#
# Revision: 1
# Processed by: cddbd v1.5.2PL0 Copyright (c) Steve Scherf et al.
# Submitted via: ExactAudioCopyFreeDBPlugin 1.0
#
DISCID=670d7717
DTITLE=Mike Fiction - Ground Zero
DYEAR=2006
DGENRE=Rap
TTITLE0=Boom
TTITLE1=Mein Name ist
TTITLE2=Warum feat. Tink
TTITLE3=Für's Geld
TTITLE4=Gangsterbraut
TTITLE5=Ich scheiss auf dich
TTITLE6=K.O. System
TTITLE7=Lass eine Hure eine Hure sein
TTITLE8=Da Rockwilder feat. Chefkoch
TTITLE9=Touch It feat. Jo Lezbo and Chefkoch
TTITLE10=Ich and Du feat. Tink
TTITLE11=Einfach grausam (Skit)
TTITLE12=Ein guter Tag
TTITLE13=Böse and Schlecht feat. Mr. Serch
TTITLE14=Glück gehabt (Skit)
TTITLE15=Reiss dich zusamm feat. Chefkoch
TTITLE16=Berlin Berlin feat. Chefkoch and Ben Salomo
TTITLE17=Man sieht es mir an
TTITLE18=Ihr sollt lachen
TTITLE19=Sill
TTITLE20=Ein Mic
TTITLE21=Krieg spielen
TTITLE22=Outro
EXTD=YEAR: 2006
EXTT0=
EXTT1=
EXTT2=
EXTT3=
EXTT4=
EXTT5=
EXTT6=
EXTT7=
EXTT8=
EXTT9=
EXTT10=
EXTT11=
EXTT12=
EXTT13=
EXTT14=
EXTT15=
EXTT16=
EXTT17=
EXTT18=
EXTT19=
EXTT20=
EXTT21=
EXTT22=
PLAYORDER=
